<svg width="45" height="45" viewBox="0 0 45 45" fill="none" xmlns="http://www.w3.org/2000/svg">
<circle cx="22.5" cy="22.5" r="22.5" fill="black"/>
<path d="M15.0452 25.1167L20.3544 19.8074C20.3544 19.8074 23.0317 27.6715 27.1134 29.9992C28.9833 31.0655 32.0066 31.4596 32.0066 31.4596C29.4783 33.4939 28.3236 34.6217 26.6974 36.7689C26.6974 36.7689 24.5969 32.0138 22.1986 29.6155C19.8003 27.2172 15.0452 25.1167 15.0452 25.1167Z" fill="#F5F5F5"/>
<path d="M14.4354 15.655C14.2333 13.3389 13.461 12.2671 11.6567 10.5044C17.9789 11.7998 22.0257 10.1654 26.9052 10.1655C32.2882 10.1657 34.3092 18.156 30.2224 21.6594C27.4364 24.0477 23.1164 24.478 18.5694 24.1264C17.9131 28.0341 18.7917 30.1875 20.6025 34.0209C17.6343 33.9372 15.9426 34.1338 12.8766 34.902C14.5398 31.9544 15.6186 30.9356 14.4354 15.655Z" fill="#F5F5F5"/>
<circle cx="22.9743" cy="16.4684" r="3.18524" fill="black"/>
</svg>