<svg width="49" height="48" viewBox="0 0 49 48" fill="none" xmlns="http://www.w3.org/2000/svg">
<path d="M24.1081 0H24C10.7452 0 0 10.7452 0 24C0 37.2548 10.7452 48 24 48H24.1081C37.3629 48 48.1081 37.2548 48.1081 24C48.1081 10.7452 37.3629 0 24.1081 0Z" fill="black"/>
<path d="M34.8358 18.628L34.7355 18.4345L34.5513 18.551C33.6911 19.0948 32.679 19.3491 31.594 19.3491C30.5942 19.3491 29.5236 19.0325 28.3713 18.5434C27.4461 18.1507 26.4822 17.6532 25.4699 17.1308C25.2209 17.0023 24.969 16.8723 24.7141 16.7419C22.1434 15.4279 19.2812 14.0909 16.1419 14.0909C14.3954 14.0909 12.3858 14.6698 10.7975 15.7625L10.6345 15.8747L10.7449 16.0389L12.1676 18.1552L12.2777 18.3191L12.443 18.211C13.8135 17.3145 15.2203 16.8909 16.689 16.8909C18.3795 16.8909 20.4405 17.7536 22.6174 18.7812V30.48V30.68H22.8174H25.0936H25.2936V30.48V20.0838C26.6973 20.7485 28.1032 21.3692 29.3582 21.7297L29.3367 30.4795L29.3362 30.68H29.5367H31.8129H32.0129V30.48V22.0288C33.307 21.9429 34.5689 21.6243 35.7913 20.8761L35.9501 20.7788L35.8645 20.6135L34.8358 18.628Z" fill="white" stroke="white" stroke-width="0.4"/>
<path d="M36.9128 27.8364C36.1244 27.8364 35.4871 28.4708 35.4871 29.2582C35.4871 30.0456 36.1244 30.68 36.9128 30.68C37.6769 30.68 38.3384 30.0479 38.3384 29.2582C38.3384 28.4685 37.6769 27.8364 36.9128 27.8364Z" fill="white" stroke="white" stroke-width="0.4"/>
</svg>
